inDegrees=yes
name=ik_tiny_file
DataType=double
version=3
OpenSimVersion=4.4-2022-07-23-0e9fedc
endheader
time	pelvis_tilt	pelvis_list	pelvis_rotation	pelvis_tx	pelvis_ty	pelvis_tz	hip_flexion_r	hip_adduction_r	hip_rotation_r	knee_angle_r	knee_angle_r_beta	ankle_angle_r	subtalar_angle_r	mtp_angle_r	hip_flexion_l	hip_adduction_l	hip_rotation_l	knee_angle_l	knee_angle_l_beta	ankle_angle_l	subtalar_angle_l	mtp_angle_l	lumbar_extension	lumbar_bending	lumbar_rotation	arm_flex_r	arm_add_r	arm_rot_r	elbow_flex_r	pro_sup_r	wrist_flex_r	wrist_dev_r	arm_flex_l	arm_add_l	arm_rot_l	elbow_flex_l	pro_sup_l	wrist_flex_l	wrist_dev_l
1.64	7.893235029372612	-3.866256883918279	0.7587708673437293	0	0.9399999999999999	0	41.58597886266621	-10.26216728641007	0	61.3621647531765	1.070971811094144	-4.877798824661152	0	0	41.58597886266621	-10.26216728641007	0	61.3621647531765	1.070971811094144	-4.877798824661152	0	0	-7.193674335296548	3.3051734522318	-2.341463960109674	18.51439530021098	-19.4902581886886	-5.481646323718079	101.32261877877	44.99701969020037	0	5.027131103243319	1.615835129979837	2.051853310554729	-1.690694124793895	0.1244927144124496	44.99701969020037	0	5.027131103243319
1.66	7.848651467485571	-3.869174129299408	0.7014848958803787	0	0.9399999999999999	0	41.58800862534834	-10.26162172190847	0	61.36153226444556	1.070960772083307	-4.877899441927469	0	0	41.58800862534834	-10.26162172190847	0	61.36153226444556	1.070960772083307	-4.877899441927469	0	0	-7.137846126193801	3.282638328951014	-2.055196430673901	18.22271375222406	-19.50656366222267	-5.70118142013452	101.3663355348829	44.99702459325937	0	5.027030888951731	1.582974046320525	2.029744586879927	-1.388476144744759	0.1243653638207219	44.99702459325937	0	5.027030888951731
1.68	7.874409388533695	-3.872421294406692	0.7022124435893652	0	0.9399999999999999	0	41.58962020994938	-10.26118897103103	0	61.36103019482977	1.070952009315437	-4.877979322117935	0	0	41.58962020994938	-10.26118897103103	0	61.36103019482977	1.070952009315437	-4.877979322117935	0	0	-7.175932022562156	3.278910668704978	-1.9109220482096	17.95930926677437	-19.45819427350368	-5.787589840724379	101.4167627480145	44.99702848373726	0	5.026951502900066	1.608338410135584	1.993039004320889	-1.238918221848109	0.1263332276743305	44.99702848373726	0	5.026951502900066
1.7	7.920964098236029	-3.884452439175977	0.7095701865438486	0	0.9399999999999999	0	41.59116558268198	-10.26077445006381	0	61.36054874130074	1.07094360636616	-4.87805590869224	0	0	41.59116558268198	-10.26077445006381	0	61.36054874130074	1.07094360636616	-4.87805590869224	0	0	-7.250272068255502	3.293173679154872	-1.76490234064314	17.67966446768643	-19.41844956613341	-6.003228654593599	101.5117813971152	44.99703221156037	0	5.026875555950924	1.621172998666077	1.994769985704351	-1.16326073847922	0.1255066489409636	44.99703221156037	0	5.026875555950924
1.72	7.932889273685027	-3.896303160256688	0.7296521649848799	0	0.9399999999999999	0	41.59201524314809	-10.26054706174254	0	61.3602837183399	1.0709389808429	-4.878097995267762	0	0	41.59201524314809	-10.26054706174254	0	61.3602837183399	1.0709389808429	-4.878097995267762	0	0	-7.317648910244709	3.320006973037088	-1.696406372006611	17.45097282583703	-19.32323820818646	-6.143068777085063	101.5187227384624	44.9970342575275	0	5.026833959096068	1.689347529306322	2.016793407007682	-1.152356255834443	0.1254078517928214	44.9970342575275	0	5.026833959096068
1.74	7.952001658110781	-3.902692854240318	0.7391804140008763	0	0.9399999999999999	0	41.59397191246828	-10.26002339419156	0	61.35967381660005	1.070928336049426	-4.878194926963251	0	0	41.59397191246828	-10.26002339419156	0	61.35967381660005	1.070928336049426	-4.878194926963251	0	0	-7.381890154209586	3.316844748110149	-1.499965418798662	17.0082909143069	-19.18074552747873	-6.542185954356428	101.5292027287328	44.99703896978824	0	5.026738221320073	1.75368074391235	2.005631907539331	-0.9572539864802181	0.124600633325942	44.99703896978824	0	5.026738221320073
1.76	7.967699842824095	-3.901085565944348	0.7519331811891543	0	0.9399999999999999	0	41.59601391072183	-10.25947771747551	0	61.35903722393588	1.070917225411442	-4.878296062190274	0	0	41.59601391072183	-10.25947771747551	0	61.35903722393588	1.070917225411442	-4.878296062190274	0	0	-7.438776547000585	3.331089530263819	-1.302532034927453	16.57975791378132	-19.04489325455636	-6.914578540659599	101.237987238954	44.99704388227897	0	5.026638623229463	1.773675117339898	2.021817097548401	-0.7411860209170971	0.1246665410603309	44.99704388227897	0	5.026638623229463
1.78	8.01549029027443	-3.911607740866857	0.8037533606803539	0	0.9399999999999999	0	41.59746329029342	-10.25909108161443	0	61.35858514699836	1.07090933518041	-4.878367823059071	0	0	41.59746329029342	-10.25909108161443	0	61.35858514699836	1.07090933518041	-4.878367823059071	0	0	-7.514874093003028	3.351212516785056	-1.167436594144194	16.08592536269756	-18.99945564099505	-7.191313748936655	100.8636219357449	44.99704736458204	0	5.026568163909822	1.763995040796143	2.018606566575541	-0.6112530577423902	0.1236938747053883	44.99704736458204	0	5.026568163909822
1.8	8.068073157535421	-3.91159947182695	0.840791205796935	0	0.9399999999999999	0	41.59861955179454	-10.25878321040012	0	61.35822421269965	1.070903035688514	-4.878425049153474	0	0	41.59861955179454	-10.25878321040012	0	61.35822421269965	1.070903035688514	-4.878425049153474	0	0	-7.584995908377538	3.372048776514074	-0.9783475195246815	15.45811788002284	-18.87694738378066	-7.357751202286375	100.268343444571	44.99705013871294	0	5.026512138921539	1.749913803196961	2.027951486871527	-0.4490774039487852	0.1234433175791343	44.99705013871294	0	5.026512138921539
1.82	8.109916712264191	-3.91488443618847	0.8797331345133339	0	0.9399999999999999	0	41.59969956596328	-10.25849601202092	0	61.3578869229562	1.070897148871958	-4.878478487997545	0	0	41.59969956596328	-10.25849601202092	0	61.3578869229562	1.070897148871958	-4.878478487997545	0	0	-7.656843364243241	3.389997750474851	-0.7502273070933597	14.70472763031519	-18.84244767913532	-7.40984580974879	99.47330745615308	44.99705272740235	0	5.026459931932018	1.755863965443317	2.059203259561937	-0.245222622372413	0.1253048251008658	44.99705272740235	0	5.026459931932018
1.84	8.142415863127038	-3.929954680506444	0.9316540275240007	0	0.9399999999999999	0	41.60073024839784	-10.25822230497065	0	61.3575648685774	1.070891527962677	-4.878529471893019	0	0	41.60073024839784	-10.25822230497065	0	61.3575648685774	1.070891527962677	-4.878529471893019	0	0	-7.736488110138493	3.416486937511536	-0.5754340997019661	13.88220662889328	-18.76559857510079	-7.53951997452014	98.50985287907294	44.99705519530971	0	5.026410231720503	1.826897231544721	2.062413683186282	-0.166525804137315	0.12532968483983	44.99705519530971	0	5.026410231720503
1.86	8.160880281540814	-3.940520798765848	0.9905715095893017	0	0.9399999999999999	0	41.60197722973534	-10.25789134450163	0	61.35717528290867	1.07088472841004	-4.878591151896893	0	0	41.60197722973534	-10.25789134450163	0	61.35717528290867	1.07088472841004	-4.878591151896893	0	0	-7.775382296425003	3.425432918853389	-0.3747973820432953	13.04805775292174	-18.74276449323814	-7.610532677382409	97.11011896708455	44.99705818003532	0	5.026350182924666	1.890884949830529	2.046498080522909	-0.05128943908565336	0.1246779045974919	44.99705818003532	0	5.026350182924666
1.88	8.160890328094689	-3.922225399956473	1.076708422871925	0	0.9399999999999999	0	41.60315122868776	-10.25758023398633	0	61.35680828865317	1.070878323151945	-4.878649204164662	0	0	41.60315122868776	-10.25758023398633	0	61.35680828865317	1.070878323151945	-4.878649204164662	0	0	-7.790484098119952	3.430736087226019	-0.2065268053111896	12.07527589386419	-18.6787291742866	-8.011535862486577	95.27313376939399	44.9970609868188	0	5.026293806679409	1.901465612439403	2.055867848408416	0.163948319244313	0.1222921634594268	44.9970609868188	0	5.026293806679409
1.9	8.185516147333924	-3.886115830594302	1.144523217097959	0	0.9399999999999999	0	41.60416201101754	-10.25731286772564	0	61.35649203964426	1.070872803565484	-4.878699165812238	0	0	41.60416201101754	-10.25731286772564	0	61.35649203964426	1.070872803565484	-4.878699165812238	0	0	-7.792895774487969	3.441394316924963	-0.05377583632629745	11.23525236016754	-18.5541684779788	-8.39724307005921	93.11539167940067	44.99706339997323	0	5.026245421216162	1.860960394748152	2.065070336162312	0.3520530856631597	0.1210888415037669	44.99706339997323	0	5.026245421216162
1.92	8.156258648515113	-3.845724115609765	1.139548472333645	0	0.9399999999999999	0	41.60566655677425	-10.25691447548225	0	61.35602198573746	1.070864599577148	-4.878773561953443	0	0	41.60566655677425	-10.25691447548225	0	61.35602198573746	1.070864599577148	-4.878773561953443	0	0	-7.738102251105371	3.384875526498554	0.2016728209853203	10.36735500911806	-18.34020692185723	-8.269667477887893	90.91705155147214	44.99706699540214	0	5.026173334348981	1.823152741202009	2.059645122729024	0.5737852922123379	0.1195556547044897	44.99706699540214	0	5.026173334348981
1.94	8.180939474656173	-3.845152751950579	1.200626485856314	0	0.9399999999999999	0	41.60695098913791	-10.25657488534022	0	61.3556205044247	1.070857592406355	-4.87883705559312	0	0	41.60695098913791	-10.25657488534022	0	61.3556205044247	1.070857592406355	-4.87883705559312	0	0	-7.736828535351282	3.382671930527167	0.41499918653401	9.279505179619902	-17.57501667633944	-8.245233949834992	88.6620907629098	44.99707006134806	0	5.026111968537416	1.747862383363501	2.08467734140641	0.8118655975401492	0.1224845655944203	44.99707006134806	0	5.026111968537416
1.96	8.227341620928986	-3.863476258665627	1.240416431312738	0	0.9399999999999999	0	41.60807175130737	-10.25627910232503	0	61.35526990363777	1.070851473268263	-4.878892437469981	0	0	41.60807175130737	-10.25627910232503	0	61.35526990363777	1.070851473268263	-4.878892437469981	0	0	-7.791706223450685	3.360160992015957	0.5284254067752684	8.527275019702582	-16.97260245797063	-8.214530115438512	86.05195617752391	44.99707273292871	0	5.026058591500052	1.736434950412662	2.024405886486234	0.9003682694840704	0.1229644666666795	44.99707273292871	0	5.026058591500052
1.98	8.187634898784118	-3.832345179861222	1.228258404113146	0	0.9399999999999999	0	41.60959343825908	-10.25587739525567	0	61.3547943117177	1.070843172623362	-4.878967644854297	0	0	41.60959343825908	-10.25587739525567	0	61.3547943117177	1.070843172623362	-4.878967644854297	0	0	-7.828125726630386	3.237225409613988	0.6594396484975138	7.939478209321145	-16.39777465125229	-7.760588052760112	83.41573493368817	44.99707636144824	0	5.025986136945375	1.846558797711317	1.925816611971503	0.9119661292811043	0.1213610551542531	44.99707636144824	0	5.025986136945375
2	8.265207146509441	-3.831398658390296	1.255218053243363	0	0.9399999999999999	0	41.61112168838171	-10.25547423598201	0	61.35431678030407	1.070834838127912	-4.879043172264649	0	0	41.61112168838171	-10.25547423598201	0	61.35431678030407	1.070834838127912	-4.879043172264649	0	0	-7.967356285252207	3.176648206304818	0.7719939056847759	7.000882383859697	-15.48573958145214	-7.381849471712043	81.27433376149342	44.99708000400381	0	5.025913495691408	1.897664720169238	1.873720912173468	0.9473062367654258	0.1229601421008362	44.99708000400381	0	5.025913495691408
